<svg width="128" height="124" viewBox="0 0 128 124" fill="none" xmlns="http://www.w3.org/2000/svg">
<ellipse cx="62" cy="62.5" rx="62" ry="52.5" fill="#E0C3C3"/>
<path d="M0.045122 7.76342C-0.171297 4.00055 3.96757 1.52157 7.48249 3.3088L46.0764 22.9326C49.5803 24.7141 49.8364 29.4018 46.5378 31.3774L10.3202 53.0701C7.02163 55.0457 2.63713 52.8308 2.4214 49.0798L0.045122 7.76342Z" fill="#E0C3C3"/>
<path d="M119.465 1.39062C123.059 -0.59846 127.43 2.01971 127.054 5.93615L122.743 50.8198C122.391 54.4849 118.087 56.5653 114.858 54.6313L77.9796 32.5431C74.7506 30.6091 74.9121 26.0475 78.2756 24.1861L119.465 1.39062Z" fill="#E0C3C3"/>
<ellipse cx="40.2131" cy="56.5" rx="5.16393" ry="5.35714" fill="#9E380D"/>
<path d="M90.3197 56.5C90.3197 59.2 88.2144 61.3571 85.6558 61.3571C83.0971 61.3571 80.9918 59.2 80.9918 56.5C80.9918 53.8 83.0971 51.6429 85.6558 51.6429C88.2144 51.6429 90.3197 53.8 90.3197 56.5Z" fill="#9E380D" stroke="#9E380D"/>
<path d="M62.634 73.5C63.0189 74.1667 63.9811 74.1667 64.366 73.5L69.1292 65.25C69.5141 64.5833 69.0329 63.75 68.2631 63.75H58.7369C57.9671 63.75 57.4859 64.5833 57.8708 65.25L62.634 73.5Z" fill="#9E380D"/>
<ellipse cx="91.8524" cy="66.1429" rx="5.16393" ry="4.28571" fill="#ECB2B2"/>
<ellipse cx="34.0163" cy="66.1429" rx="5.16393" ry="4.28571" fill="#ECB2B2"/>
<line y1="-0.5" x2="20.7666" y2="-0.5" transform="matrix(0.994662 -0.103188 0.0959487 0.995386 99.082 70.4286)" stroke="#9E380D"/>
<line y1="-0.5" x2="20.7666" y2="-0.5" transform="matrix(0.994662 0.103188 -0.0959487 0.995386 99.082 79)" stroke="#9E380D"/>
<line y1="-0.5" x2="20.7666" y2="-0.5" transform="matrix(0.994662 0.103188 -0.0959487 0.995386 8.19678 70.4286)" stroke="#9E380D"/>
<line y1="-0.5" x2="20.7666" y2="-0.5" transform="matrix(0.994662 -0.103188 0.0959487 0.995386 8.19678 83.2857)" stroke="#9E380D"/>
<path d="M112.55 13.4922C113.276 13.1647 114.063 13.8214 113.912 14.6276L110.899 30.6611C110.758 31.4099 109.899 31.7307 109.322 31.25L97.8999 21.7305C97.3231 21.2498 97.4397 20.3105 98.1138 20.0063L112.55 13.4922Z" fill="#D65D5D"/>
<path d="M10.312 12.791C10.1432 11.9883 10.9168 11.3148 11.6495 11.6267L26.222 17.8289C26.9026 18.1186 27.0393 19.0552 26.473 19.5482L15.2577 29.3109C14.6914 29.8039 13.8261 29.5017 13.6693 28.7561L10.312 12.791Z" fill="#D65D5D"/>
<line x1="62.4016" y1="10.4286" x2="62.4016" y2="34" stroke="#9E380D"/>
<line x1="56.205" y1="10.4286" x2="56.205" y2="21.1428" stroke="#9E380D"/>
<line x1="68.5984" y1="10.4286" x2="68.5984" y2="21.1428" stroke="#9E380D"/>
</svg>
